<svg xmlns="http://www.w3.org/2000/svg" viewBox="0 0 138.36 29.57"><defs><style>.a{fill:#0f4c81;}</style></defs><rect class="a" y="16.75" width="12.23" height="2.96"/><rect class="a" y="21.66" width="12.23" height="2.95"/><rect class="a" y="26.58" width="12.23" height="2.99"/><rect class="a" width="12.23" height="14.78"/><path class="a" d="M64.2,14.78a6.79,6.79,0,0,1-6.78,6.81h-.33V8h.33a6.79,6.79,0,0,1,6.78,6.82m10.1,0C74.3,5.56,66.89,0,58.32,0H47V29.57H58.36c8.53,0,15.94-5.63,15.94-14.79"/><path class="a" d="M25.38,29.57V13.46c2.31,1.19,7.17,6.1,8.49,8.15v8H43.93V0H33.87V8C32.26,6,25.91,1,23.63,0H15.29V29.57Z"/><path class="a" d="M123.81,13.47c.89-1,7.37-7,8.78-13.47H121.74a10,10,0,0,1-1.37,2.8,13.3,13.3,0,0,1-2.68,2.8A13.3,13.3,0,0,1,115,2.8,10.28,10.28,0,0,1,113.63,0H102.79c1.41,6.47,7.89,12.45,8.78,13.47a38.41,38.41,0,0,0-7,10.88,42,42,0,0,0-1.74,5.22h10.84a22.76,22.76,0,0,1,4.06-8,22.76,22.76,0,0,1,4.06,8h10.84a40.44,40.44,0,0,0-1.74-5.22,38.41,38.41,0,0,0-7-10.88"/><polygon class="a" points="87.46 21.6 87.46 17.98 93.6 17.98 93.6 11.59 87.46 11.59 87.46 7.96 99.74 7.96 99.74 0 77.36 0 77.36 29.57 99.74 29.57 99.74 21.6 87.46 21.6"/><path class="a" d="M135.86,4.59a2.07,2.07,0,0,1-2.05-2.09,2.05,2.05,0,1,1,4.1,0,2.07,2.07,0,0,1-2,2.09m-2.5-2.09a2.5,2.5,0,1,0,2.5-2.5,2.49,2.49,0,0,0-2.5,2.5m1.95-.16V1.45h.6c.31,0,.64.05.64.43s-.36.46-.76.46ZM134.86,4h.45V2.75h.48l.8,1.22H137l-.84-1.26A.78.78,0,0,0,137,1.9c0-.57-.35-.85-1-.85h-1.13Z"/></svg>