<svg xmlns="http://www.w3.org/2000/svg" xmlns:xlink="http://www.w3.org/1999/xlink" viewBox="0 0 466.89 135.6"><defs><style>.a{fill:none;}.b{clip-path:url(#a);}.c{fill:#fff;}.d{clip-path:url(#b);}</style><clipPath id="a" transform="translate(0 0)"><rect class="a" width="466.89" height="135.6"/></clipPath><clipPath id="b" transform="translate(0 0)"><rect class="a" y="-1.8" width="489.82" height="137.4"/></clipPath></defs><g class="b"><rect class="c" y="56.51" width="41.27" height="9.97"/><rect class="c" y="73.1" width="41.28" height="9.97"/><rect class="c" y="89.68" width="41.28" height="10.1"/><rect class="c" width="41.27" height="49.89"/><g class="d"><path class="c" d="M216.65,49.87a22.94,22.94,0,0,1-22.89,23l-1.12,0V26.9l1.12,0a23,23,0,0,1,22.89,23m34.09,0c0-31.12-25-49.89-54-49.89H158.56V99.78h38.38c28.79,0,53.8-19,53.8-49.89" transform="translate(0 0)"/><path class="c" d="M85.66,99.78V45.41c7.79,4,24.17,20.58,28.64,27.5V99.78h33.94V0H114.3V26.87C108.87,20.31,87.44,3.42,79.75,0H51.59V99.78Z" transform="translate(0 0)"/><path class="c" d="M417.81,45.46c3-3.46,24.86-23.62,29.61-45.46H410.83a34,34,0,0,1-4.63,9.46,45.26,45.26,0,0,1-9.05,9.45,45.26,45.26,0,0,1-9-9.45A34.8,34.8,0,0,1,383.45,0H346.89c4.75,21.84,26.6,42,29.61,45.46a128.72,128.72,0,0,0-23.75,36.72,131.58,131.58,0,0,0-5.86,17.6h36.56a77.1,77.1,0,0,1,13.7-26.87,76.93,76.93,0,0,1,13.7,26.87h36.57a133.07,133.07,0,0,0-5.87-17.6,128.9,128.9,0,0,0-23.74-36.72" transform="translate(0 0)"/><polygon class="c" points="295.13 72.9 295.13 60.66 315.85 60.66 315.85 39.12 295.13 39.12 295.13 26.88 336.57 26.88 336.57 0 261.06 0 261.06 99.78 336.57 99.78 336.57 72.9 295.13 72.9"/><path class="c" d="M436.77,130.78a10.58,10.58,0,0,1-5.87,1.62c-5.76,0-9.95-4.13-9.95-9.67s4.19-9.67,10-9.67A9.92,9.92,0,0,1,438.2,116l2.22-2.23a12.54,12.54,0,0,0-9.63-3.88c-7.77,0-13.42,5.43-13.42,12.87S423,135.6,430.72,135.6a14.79,14.79,0,0,0,9.49-3.2v-9.81h-3.44Zm-34.9-20.64v18.77l-15-18.77H383.9v25.18h3.58V116.54l15,18.78h2.94V110.14Zm-35.51,25.18h3.58V110.14h-3.58Zm-9.85,0-9.48-13,8.84-12.16H352l-7,9.68-7-9.68h-4.08l8.84,12.27-9.42,12.91h4.12l7.41-10.4,7.52,10.4Zm-37.4,0h3.58V110.14h-3.58Zm-11.49-22v-3.13H289.93v25.18h3.58V125.14h12.57v-3.09H293.51v-8.78Zm-56.24,22h3.55v-22h8.59v-3.13H242.79v3.13h8.59Zm-25.81.28a12.39,12.39,0,0,0,9.56-3.95l-2.33-2.27a9.28,9.28,0,0,1-7.05,3,9.67,9.67,0,1,1,0-19.34,9.25,9.25,0,0,1,7.05,3l2.33-2.26a12.34,12.34,0,0,0-9.52-3.92c-7.62,0-13.28,5.43-13.28,12.87S218,135.6,225.57,135.6m-37.94-3.41v-8.13h12.56V121H187.63v-7.73h14.1v-3.13H184.05v25.18h18.18v-3.13Zm-15.07-18.92v-3.13H154.88v25.18h3.58V125.14H171v-3.09H158.46v-8.78ZM132.08,124.6H126V113.27h6.09c4.58,0,7,2,7,5.65s-2.39,5.68-7,5.68m11,10.72-5.94-8.45a7.94,7.94,0,0,0,5.51-8c0-5.47-3.93-8.78-10.45-8.78h-9.77v25.18H126v-7.66h6.19c.54,0,1.08,0,1.58-.08l5.4,7.74Zm-47.5-3.13v-8.13h12.57V121H95.56v-7.73h14.11v-3.13H92v25.18h18.19v-3.13Zm-25.84-7.63H63.63V113.27h6.09c4.58,0,7,2,7,5.65s-2.4,5.64-7,5.64m.11-14.42H60.05v25.18h3.58v-7.63h6.2c6.51,0,10.45-3.31,10.45-8.77s-3.94-8.78-10.45-8.78m-54.59,16,5.4-12.34,5.41,12.34Zm14.82,9.17h3.76L22.43,110.14H18.89L7.54,135.32h3.69L14,129H27.3Z" transform="translate(0 0)"/><path class="c" d="M458.47,15.49a7,7,0,0,1-6.93-7.07,6.93,6.93,0,1,1,13.85,0,7,7,0,0,1-6.92,7.07M450,8.42A8.43,8.43,0,1,0,458.47,0,8.42,8.42,0,0,0,450,8.42m6.56-.52v-3h2c1,0,2.13.16,2.13,1.46,0,1.47-1.2,1.54-2.56,1.54Zm-1.5,5.5h1.5V9.26h1.62l2.72,4.14h1.5l-2.82-4.25a2.62,2.62,0,0,0,2.66-2.72c0-2-1.18-2.89-3.36-2.89H455.1Z" transform="translate(0 0)"/></g></g></svg>