<svg xmlns="http://www.w3.org/2000/svg" xmlns:xlink="http://www.w3.org/1999/xlink" viewBox="0 0 466 138.62"><defs><style>.a{fill:none;}.b{clip-path:url(#a);}.c{clip-path:url(#b);}.d{fill:#0f4881;}</style><clipPath id="a" transform="translate(0 0)"><rect class="a" width="466" height="138.62"/></clipPath><clipPath id="b" transform="translate(0 0)"><rect class="a" x="-7.35" y="-1.27" width="480.71" height="141.17"/></clipPath></defs><g class="b"><g class="c"><path class="d" d="M452.32,15.55h1.74v-4.8h1.88l3.16,4.8h1.73l-3.26-4.93c1.73-.19,3.08-1.13,3.08-3.16,0-2.27-1.37-3.35-3.9-3.35h-4.43Zm1.74-6.38V5.69h2.37c1.22,0,2.48.19,2.48,1.69,0,1.71-1.39,1.79-3,1.79Zm-7.61.61A9.78,9.78,0,1,0,456.22,0a9.76,9.76,0,0,0-9.77,9.78M456.22,18a8.11,8.11,0,0,1-8-8.19,8,8,0,1,1,16.08,0,8.1,8.1,0,0,1-8,8.19" transform="translate(0 0)"/><rect class="d" y="55.63" width="40.81" height="9.82"/><rect class="d" y="71.96" width="40.82" height="9.82"/><rect class="d" y="88.29" width="40.82" height="9.94"/><rect class="d" width="40.82" height="49.12"/><path class="d" d="M248,49.12C248,18.48,223.2,0,194.61,0H156.8V98.23h37.95c28.47,0,53.2-18.7,53.2-49.11m-33.71,0a22.64,22.64,0,0,1-22.63,22.64q-.56,0-1.11,0V26.48q.56,0,1.11,0a22.64,22.64,0,0,1,22.63,22.64" transform="translate(0 0)"/><path class="d" d="M84.71,98.23V44.7c7.7,4,23.9,20.26,28.32,27.07V98.23h33.56V0H113V26.45C107.66,20,86.47,3.37,78.87,0H51V98.23Z" transform="translate(0 0)"/><path class="d" d="M413.16,44.75c3-3.41,24.59-23.25,29.28-44.75H406.26a33.1,33.1,0,0,1-4.58,9.31,44.48,44.48,0,0,1-8.94,9.31,44.58,44.58,0,0,1-9-9.31A34.41,34.41,0,0,1,379.19,0H343c4.69,21.5,26.31,41.34,29.28,44.75A127,127,0,0,0,348.83,80.9,129.11,129.11,0,0,0,343,98.23h36.16a75.51,75.51,0,0,1,13.55-26.46,75.65,75.65,0,0,1,13.54,26.46h36.16a130.54,130.54,0,0,0-5.8-17.33,127,127,0,0,0-23.48-36.15" transform="translate(0 0)"/><polygon class="d" points="291.85 71.76 291.85 59.72 312.33 59.72 312.34 38.51 291.85 38.51 291.85 26.46 332.82 26.46 332.82 0 258.16 0 258.16 98.23 332.82 98.23 332.82 71.76 291.85 71.76"/><path class="d" d="M29.72,138.34h3.72L22.18,113.56h-3.5L7.46,138.34H11.1l2.73-6.19H27Zm-14.65-9,5.34-12.14,5.35,12.14Zm54-15.76H59.39v24.78h3.54v-7.5h6.12c6.44,0,10.34-3.26,10.34-8.64s-3.9-8.64-10.34-8.64m-.11,14.2h-6V116.64h6c4.54,0,6.91,2,6.91,5.56s-2.37,5.56-6.91,5.56m25.56,7.5v-8h12.43v-3H94.5v-7.61h14v-3.08H91v24.78h18v-3.08Zm47,3.08L135.6,130a7.8,7.8,0,0,0,5.45-7.82c0-5.38-3.89-8.64-10.34-8.64h-9.66v24.78h3.54v-7.53h6.12c.53,0,1.06,0,1.56-.08l5.34,7.61Zm-10.86-10.55h-6V116.64h6c4.53,0,6.9,2,6.9,5.56s-2.37,5.59-6.9,5.59m40-11.15v-3.08H153.16v24.78h3.53v-10h12.43v-3.05H156.69v-8.64Zm14.9,18.62v-8H198v-3H185.54v-7.61h14v-3.08H182v24.78h18v-3.08Zm37.52,3.36a12.31,12.31,0,0,0,9.46-3.89l-2.31-2.23a9.2,9.2,0,0,1-7,3,9.53,9.53,0,1,1,0-19,9.16,9.16,0,0,1,7,2.94l2.31-2.23a12.26,12.26,0,0,0-9.42-3.86c-7.54,0-13.13,5.35-13.13,12.68s5.59,12.66,13.09,12.66m25.53-.28h3.5v-21.7h8.5v-3.08h-20.5v3.08h8.5Zm55.61-21.7v-3.08H286.71v24.78h3.54v-10h12.42v-3.05H290.25v-8.64Zm11.36,21.7h3.54V113.56h-3.54Zm37,0-9.38-12.81,8.74-12h-3.86l-6.86,9.53-6.94-9.53h-4L339,125.64l-9.31,12.7h4.07L341,128.11l7.44,10.23Zm9.73,0h3.54V113.56h-3.54Zm35.12-24.78V132l-14.87-18.48h-2.9v24.78h3.54V119.87L398,138.34h2.91V113.56Zm34.51,20.32a10.41,10.41,0,0,1-5.8,1.6c-5.7,0-9.84-4.07-9.84-9.52s4.14-9.53,9.87-9.53a9.85,9.85,0,0,1,7.19,2.87l2.19-2.2a12.43,12.43,0,0,0-9.52-3.82c-7.68,0-13.27,5.35-13.27,12.68s5.59,12.66,13.2,12.66a14.69,14.69,0,0,0,9.38-3.14v-9.67h-3.4Z" transform="translate(0 0)"/></g></g></svg>